<svg width="20" height="21" viewBox="0 0 20 21" fill="none" xmlns="http://www.w3.org/2000/svg">
<path fill-rule="evenodd" clip-rule="evenodd" d="M1.25 4C1.25 2.61929 2.36929 1.5 3.75 1.5H4.89302C5.61 1.5 6.23498 1.98796 6.40887 2.68354L7.33037 6.36952C7.48284 6.97942 7.25495 7.62129 6.75202 7.99849L5.674 8.807C5.56206 8.89096 5.53772 9.0139 5.56917 9.09974C6.51542 11.6829 8.5671 13.7346 11.1503 14.6808C11.2361 14.7123 11.359 14.6879 11.443 14.576L12.2515 13.498C12.6287 12.9951 13.2706 12.7672 13.8805 12.9196L17.5665 13.8411C18.262 14.015 18.75 14.64 18.75 15.357V16.5C18.75 17.8807 17.6307 19 16.25 19H14.375C7.12626 19 1.25 13.1237 1.25 5.875V4Z" fill="#262626"/>
</svg>
