<svg width="20" height="21" viewBox="0 0 20 21" fill="none" xmlns="http://www.w3.org/2000/svg">
<path fill-rule="evenodd" clip-rule="evenodd" d="M9.61646 19.3759C9.64163 19.3905 9.66141 19.4017 9.67542 19.4096L9.69869 19.4226C9.88441 19.5245 10.1148 19.5238 10.3007 19.4229L10.3246 19.4096C10.3386 19.4017 10.3584 19.3905 10.3835 19.3759C10.4339 19.3467 10.5058 19.3042 10.5963 19.2485C10.7771 19.1372 11.0323 18.973 11.3372 18.7576C11.9459 18.3276 12.7581 17.6895 13.5721 16.8561C15.1922 15.1974 16.875 12.7051 16.875 9.5C16.875 5.70304 13.797 2.625 10 2.625C6.20304 2.625 3.125 5.70304 3.125 9.5C3.125 12.7051 4.80777 15.1974 6.42788 16.8561C7.24188 17.6895 8.05409 18.3276 8.66282 18.7576C8.96771 18.973 9.22295 19.1372 9.40375 19.2485C9.49419 19.3042 9.56612 19.3467 9.61646 19.3759ZM10 12C11.3807 12 12.5 10.8807 12.5 9.5C12.5 8.11929 11.3807 7 10 7C8.61929 7 7.5 8.11929 7.5 9.5C7.5 10.8807 8.61929 12 10 12Z" fill="#262626"/>
</svg>
