<svg width="20" height="21" viewBox="0 0 20 21" fill="none" xmlns="http://www.w3.org/2000/svg">
<g clip-path="url(#clip0_2098_1551)">
<path d="M6.2918 18.3751C13.8371 18.3751 17.9652 12.1224 17.9652 6.70167C17.9652 6.52589 17.9613 6.3462 17.9535 6.17042C18.7566 5.58967 19.4496 4.87033 20 4.0462C19.2521 4.37896 18.458 4.59627 17.6449 4.69074C18.5011 4.17755 19.1421 3.37135 19.4492 2.42159C18.6438 2.89892 17.763 3.23563 16.8445 3.4173C16.2257 2.75976 15.4075 2.32439 14.5164 2.1785C13.6253 2.03261 12.711 2.18433 11.9148 2.6102C11.1186 3.03607 10.4848 3.71238 10.1115 4.53455C9.73825 5.35672 9.64619 6.27897 9.84961 7.1587C8.21874 7.07686 6.62328 6.65321 5.16665 5.9152C3.71002 5.1772 2.42474 4.14132 1.39414 2.87472C0.870333 3.77782 0.710047 4.84649 0.945859 5.86353C1.18167 6.88057 1.79589 7.76966 2.66367 8.35011C2.01219 8.32943 1.37498 8.15402 0.804688 7.83839V7.88917C0.804104 8.83691 1.13175 9.75561 1.73192 10.4891C2.3321 11.2226 3.16777 11.7256 4.09687 11.9126C3.49338 12.0777 2.85999 12.1018 2.2457 11.9829C2.50788 12.798 3.01798 13.5109 3.70481 14.0221C4.39164 14.5333 5.22093 14.8173 6.07695 14.8345C4.62369 15.976 2.82848 16.5952 0.980469 16.5923C0.652739 16.5918 0.325333 16.5717 0 16.5321C1.87738 17.7366 4.06128 18.3763 6.2918 18.3751Z" fill="#333333"/>
</g>
<defs>
<clipPath id="clip0_2098_1551">
<rect width="20" height="20" fill="white" transform="translate(0 0.25)"/>
</clipPath>
</defs>
</svg>
